<svg xmlns="http://www.w3.org/2000/svg" viewBox="0 0 1017.06 299"><defs><style>.cls-1{fill:#76b72a;}.cls-2{fill:#005296;}.cls-3{fill:#009ea4;}.cls-4{fill:#0075be;}</style></defs><title>Fichier 3</title><g id="Calque_2" data-name="Calque 2"><g id="Calque_1-2" data-name="Calque 1"><path class="cls-1" d="M159.87,102.6c-3.26-1.84-6.44-3.59-9.65-5.26-1.25-.66-2.51-1.28-3.77-1.91a151.06,151.06,0,0,1,22.42.45l.37-3.71a159,159,0,0,0-27.6,0,192.32,192.32,0,0,0-27.2,4.25,194.54,194.54,0,0,0-51.21,19.68q-6,3.34-11.77,7.12c-3.83,2.51-7.61,5.12-11.22,8a116.57,116.57,0,0,0-19.5,19.46C9.37,165.12,1.77,182.76.29,201.17a85.91,85.91,0,0,0,2.15,27.4A92.79,92.79,0,0,0,12.86,254a86.87,86.87,0,0,0,41,35.26,91.87,91.87,0,0,0,26.52,6.67,102.82,102.82,0,0,0,27.31-1.06c17.34-3,33.74-9.95,48.69-19l1.8-1.09-.08-.12-1.87,1.12h0c-2.2-.27-4.38-.6-6.52-1,.88-.5,1.75-1,2.62-1.55.42-.26.86-.5,1.27-.76l-.12-.2-.32-.22-1.38.81c-.72.42-1.43.85-2.16,1.26.29-.72.55-1.44.83-2.16.18-.49.38-1,.56-1.47l-.82-.56-.55,1.48c-.44,1.16-.88,2.32-1.37,3.47-2.27,1.26-4.59,2.45-6.94,3.57.86-1.86,1.65-3.72,2.39-5.59,1.51-.78,3-1.61,4.47-2.47.61-.35,1.23-.7,1.83-1.07l-.08-.12c-.63.37-1.27.72-1.91,1.08a97.65,97.65,0,0,1-27.16,10.37c-10.19,2.19-20.85,2.79-31,.63a44,44,0,0,1-14.35-5.68,32.64,32.64,0,0,1-10.7-10.88A50,50,0,0,1,59,250.36a35.47,35.47,0,0,1-.16-15.21,40.16,40.16,0,0,1,6.05-14,63.52,63.52,0,0,1,10.15-11.59A104.27,104.27,0,0,1,87.56,200c2.34-1.55,4.75-3,7.19-4.43,2-1.15,4-2.26,6-3.33l1.28-.65q5.72-2.94,11.62-5.51,7.75-3.41,15.73-6.28c7.05-2.55,14.22-4.85,21.43-6.85,1.48-.42,3-.8,4.46-1.18l2.47-.64,1.13-2-1.29-1.78c-7.69,2-14.39,4.07-21.82,6.67q4.59-7.47,10-14.69c3.31-4.35,6.84-8.61,10.59-12.73,1.87-2,3.8-4.07,5.8-6,1.12-1.08,2.25-2.15,3.41-3.18q.36-2,.72-4.11c-1.91,1.52-3.68,3.15-5.41,4.81-2.18,2.1-4.27,4.28-6.29,6.49-4,4.43-7.81,9-11.32,13.72A179.18,179.18,0,0,0,132,175.32c-1.26.45-2.51.89-3.76,1.36q-6.65,2.52-13.15,5.38a153.8,153.8,0,0,1,10.13-19.52A191.46,191.46,0,0,1,145.9,134.9l1.11-.17c3.57-.51,7.15-.93,10.74-1.21a85,85,0,0,1,8.57-.27c.12-.75.25-1.5.37-2.26l0,0c.17-1.08.34-2.16.5-3.25-1.84-1.49-3.8-2.86-5.73-4.2-2.56-1.75-5.18-3.41-7.84-5-5.33-3.21-10.83-6.18-16.51-9a238.73,238.73,0,0,0-22.84-9.71l.87-.21a189.08,189.08,0,0,1,25.16-3.8c2.47,1.18,4.92,2.39,7.35,3.65,3.65,1.9,7.26,3.88,10.9,6l5.58,3.27c1.53.91,3.22,1.87,4.81,2.9.08-1.26.15-2.51.19-3.74-1.4-.86-2.86-1.67-4.23-2.44Zm-95.27,16c5.21-2.86,10.57-5.44,16-7.79a202.33,202.33,0,0,1,27.06,7.34,212.21,212.21,0,0,1,33.69,15.07q-8.15,1.44-16.16,3.49c-1.48.38-3,.78-4.42,1.19a196,196,0,0,0-35.22-11.65,172.38,172.38,0,0,0-27.43-4C60.28,121,62.42,119.8,64.6,118.62ZM41.85,133.29c3.55-2.77,7.29-5.31,11.09-7.75l1.18-.73c2.28.07,4.55.18,6.77.35a170.52,170.52,0,0,1,20.63,2.89A189.69,189.69,0,0,1,117,139a202.69,202.69,0,0,0-20.12,7.11A162.15,162.15,0,0,0,60,139.46a119.57,119.57,0,0,0-21.58.6c-1.77.2-3.56.47-5.36.76C35.89,138.17,38.81,135.65,41.85,133.29ZM22.62,152.17c2.26-2.83,4.67-5.54,7.19-8.13a122.62,122.62,0,0,1,26.59-2.27,157.05,157.05,0,0,1,37.06,5.81q-4.67,2-9.21,4.33c-3.38,1.72-6.72,3.55-10,5.5A114.36,114.36,0,0,0,36,158a103.2,103.2,0,0,0-22,6.74A99.06,99.06,0,0,1,22.62,152.17ZM12.09,168.31A99.61,99.61,0,0,1,33,161a110.07,110.07,0,0,1,38.31-1.78,120,120,0,0,0-17.41,13.19,88.42,88.42,0,0,0-37.51,10.81A84.49,84.49,0,0,0,3.61,192,90.56,90.56,0,0,1,12.09,168.31Zm-9.86,33c.16-1.9.41-3.79.71-5.67a82.27,82.27,0,0,1,11.42-8.6,85.28,85.28,0,0,1,37.15-12.36c-.91.89-1.82,1.77-2.69,2.7A87,87,0,0,0,37.69,192a69.43,69.43,0,0,0-16.16,8.34,71.43,71.43,0,0,0-16,15.32c-1,1.34-2,2.76-3,4.21A83.56,83.56,0,0,1,2.23,201.34Zm1.88,26.83c-.4-1.69-.73-3.39-1-5.1.67-1.09,1.35-2.16,2.06-3.2a71,71,0,0,1,15.19-16.15,67.78,67.78,0,0,1,15.8-9.08c-.08.16-.18.32-.27.48a66.79,66.79,0,0,0-7.22,20.57,60.23,60.23,0,0,0-11.73,14.17A73.5,73.5,0,0,0,10,245.28,89.52,89.52,0,0,1,4.11,228.17Zm53.24,22.58a1.05,1.05,0,0,1,0,.19c-1.17-.05-2.36-.15-3.55-.31a25,25,0,0,1-4-1c-1.33-.4-2.67-.84-4-1.34A59.51,59.51,0,0,1,31,240.23q-.33-1.38-.6-2.76a58.76,58.76,0,0,1-.57-19.17,49.51,49.51,0,0,0,11,12.52,46.76,46.76,0,0,0,13.81,7.61c.58.2,1.16.38,1.74.56A38.12,38.12,0,0,0,57.35,250.75ZM23.7,263.7c-.08.79-.16,1.56-.23,2.34a80.94,80.94,0,0,1-9.32-12.83q-1.51-2.61-2.86-5.31a74.23,74.23,0,0,1,5.9-14.66,60.6,60.6,0,0,1,11-14.71A60.42,60.42,0,0,0,29,237.74q.33,1.63.75,3.24a69.89,69.89,0,0,0-5.31,17.56Q24,261.09,23.7,263.7Zm1.49,4.22c0-.5,0-1,0-1.5.13-1.75.32-3.47.56-5.17a72.15,72.15,0,0,1,4.66-17.73,72.42,72.42,0,0,0,6.29,14.71,53.31,53.31,0,0,0,3.63,5.66,57.85,57.85,0,0,0,2.08,18.17A86.82,86.82,0,0,1,25.19,267.92Zm29.12,20.34a86.78,86.78,0,0,1-9.86-5,58,58,0,0,1-2.63-17.45,57.63,57.63,0,0,0,9.06,9.08c1.42,1.14,2.9,2.21,4.42,3.22A66.74,66.74,0,0,0,61.65,291C59.16,290.21,56.71,289.3,54.31,288.26Zm9.5,3.45a67.6,67.6,0,0,1-6.53-12.34A67.69,67.69,0,0,0,70,285.43c.88.31,1.75.6,2.64.87a65.62,65.62,0,0,0,6.41,8.59A91.24,91.24,0,0,1,63.81,291.71Zm17.4,3.43a67.39,67.39,0,0,1-6.52-8.25,78.61,78.61,0,0,0,15.67,2.71A77.77,77.77,0,0,0,97,295.42,98.85,98.85,0,0,1,81.21,295.14Zm26.42-.9c-2.9.47-5.82.81-8.74,1a78.42,78.42,0,0,1-6.62-5.56,89.61,89.61,0,0,0,13.41-.33c2.21,1.39,4.52,2.69,6.91,3.92C110.94,293.65,109.29,294,107.63,294.24Zm6.72-1.3c-2.37-1.17-4.67-2.42-6.87-3.75,1.93-.23,3.85-.51,5.76-.86,2.11-.37,4.2-.83,6.28-1.34q3.06,1.49,6.3,2.78C122.05,291,118.23,292.07,114.35,292.94Zm13.14-3.72c-2.15-.82-4.25-1.7-6.28-2.65q4.8-1.26,9.47-3,3.15,1.05,6.42,1.92Q132.36,287.54,127.49,289.22Zm21-13.79c2.12.42,4.28.78,6.46,1.08q-3.41,2-6.9,3.81c-2.17-.38-4.32-.82-6.43-1.32Q145.07,277.32,148.45,275.43Zm-1.84,5.62c-2.65,1.36-5.35,2.63-8.07,3.83q-3.25-.83-6.39-1.83c2.72-1,5.39-2.16,8-3.39Q143.34,280.44,146.61,281.05Zm-4.15-7.62c-.76,1.86-1.57,3.72-2.45,5.57-2.67,1.22-5.37,2.35-8.12,3.38,1-1.84,2-3.68,2.89-5.54C137.39,275.81,140,274.68,142.46,273.43Zm-9,3.92c-.93,1.86-1.92,3.7-3,5.54-3.09,1.1-6.23,2.08-9.41,2.9q2-2.78,3.83-5.63C127.81,279.36,130.66,278.41,133.47,277.35ZM121,281.15c.79-.18,1.57-.4,2.35-.6q-1.86,2.86-4,5.66-3.12.75-6.29,1.31c-1.93.34-3.86.61-5.81.83,1.69-1.83,3.27-3.71,4.75-5.61C115.07,282.35,118.07,281.83,121,281.15Zm-10.51,1.77c-1.53,1.9-3.16,3.78-4.9,5.6a89.24,89.24,0,0,1-13.58.25A72.9,72.9,0,0,0,99,283.3,74.52,74.52,0,0,0,110.52,282.92Zm-20.87-.7a64.38,64.38,0,0,0,7.56,1,71.82,71.82,0,0,1-7.17,5.4,77.79,77.79,0,0,1-15.43-2.83,60,60,0,0,0,9.7-4.94A51.6,51.6,0,0,0,89.65,282.22ZM74.84,276.6a41.18,41.18,0,0,0,7.86,3.71,59.43,59.43,0,0,1-10.23,4.82c-.7-.23-1.39-.46-2.08-.71a66.61,66.61,0,0,1-12.85-6.24,60.68,60.68,0,0,0,13.7-4.11A34.29,34.29,0,0,0,74.84,276.6Zm-11.3-11.19a33,33,0,0,0,6.58,7.73,58.67,58.67,0,0,1-14.3,3.93q-2.16-1.45-4.2-3.1a56.2,56.2,0,0,1-9-9.2,48,48,0,0,0,20.66.12C63.34,265.06,63.43,265.24,63.54,265.41Zm-1-1.74a43.36,43.36,0,0,1-4.63.68,47.05,47.05,0,0,1-16.72-1.48,49.78,49.78,0,0,1-3.32-5.28,70.82,70.82,0,0,1-6.22-14.86,61.86,61.86,0,0,0,15.23,7.58c1.35.45,2.71.87,4.06,1.22a34.69,34.69,0,0,0,3.85.56c1,.1,2,.13,3,.14A51.11,51.11,0,0,0,62.53,263.67ZM57,234.76c-.18.93-.31,1.87-.42,2.81-.82-.27-1.64-.55-2.45-.87a44.88,44.88,0,0,1-13.43-8.15,49.28,49.28,0,0,1-10.41-13,65.61,65.61,0,0,1,7.08-19.63c.14-.25.3-.5.44-.76A56.82,56.82,0,0,0,43,211a40.3,40.3,0,0,0,9.59,12.37,34.43,34.43,0,0,0,6.5,4.37A39,39,0,0,0,57,234.76ZM63.11,220a46.69,46.69,0,0,0-3.54,6.57,33.69,33.69,0,0,1-6.82-5,41.22,41.22,0,0,1-9-12.91,58.68,58.68,0,0,1-4.49-16.07,85.1,85.1,0,0,1,10.81-13.92c.91-1,1.86-1.88,2.81-2.8-1.32,12-.12,23.47,3.94,32.53a34.83,34.83,0,0,0,7,10.47C63.64,219.22,63.36,219.59,63.11,220Zm1.56-2.23a35.77,35.77,0,0,1-6.77-11.32c-3.59-9.33-4.32-20.89-2.62-32.78A116.68,116.68,0,0,1,72.47,160.8c-3.87,11.37-5.81,22.76-5.2,33.16a48.48,48.48,0,0,0,3.65,16.35A64.33,64.33,0,0,0,64.67,217.74ZM81,201.46c-2.62,2-5.17,4.1-7.59,6.36-.45.42-.87.86-1.31,1.29a51.26,51.26,0,0,1-3-17c-.2-10.47,2.15-21.79,6.29-33.09q4.77-2.81,9.73-5.28c3-1.52,6.14-2.94,9.27-4.29a135.45,135.45,0,0,0-12,32.14A69,69,0,0,0,81,201.46Zm13.61-9a137,137,0,0,0-11.84,7.69c-.07-1.37-.1-2.75-.07-4.16a70.37,70.37,0,0,1,2.32-16.07A140.48,140.48,0,0,1,97.8,148a202.91,202.91,0,0,1,19.92-6.9,169.19,169.19,0,0,0-16.57,30.24,120.52,120.52,0,0,0-5.38,16C95.34,189.07,95,190.75,94.65,192.43Zm27.08-28.83A148.63,148.63,0,0,0,112,183.49c-4.22,1.94-8.4,4-12.49,6.21-.77.42-1.53.85-2.29,1.28a119.28,119.28,0,0,1,7.11-21,173.85,173.85,0,0,1,17.19-29.93c1.43-.38,2.87-.77,4.3-1.13q8-2,16.08-3.38A191,191,0,0,0,121.73,163.6Zm12.84-52.08c6,2.9,11.88,6,17.49,9.38,2.81,1.69,5.56,3.43,8.23,5.27,2.12,1.46,4.2,3,6.14,4.61a86.93,86.93,0,0,0-8.87.31c-3.66.31-7.28.75-10.9,1.29-.39.05-.77.13-1.17.19a211.4,211.4,0,0,0-33.4-15.71,207.46,207.46,0,0,0-26.92-7.92,192.9,192.9,0,0,1,23.9-7.83A233.57,233.57,0,0,1,134.57,111.52Z"/><rect class="cls-2" x="358.8" y="103.74" width="15.27" height="92.1"/><polygon class="cls-2" points="404.84 195.85 420.11 195.85 420.11 159.02 484.11 159.02 484.11 145.28 420.11 145.28 420.11 117.48 493.56 117.48 493.56 103.74 404.84 103.74 404.84 195.85"/><polygon class="cls-2" points="796.79 103.74 618.1 103.74 618.1 117.48 662.12 117.48 662.12 195.85 677.38 195.85 677.38 117.48 737.51 117.48 737.51 195.85 752.77 195.85 752.77 117.48 796.79 117.48 796.79 103.74"/><path class="cls-2" d="M831.57,103.74l-48.73,92.11h16.7l10.61-20.61h62l10.61,20.61h16.7l-48.73-92.11Zm-14,57.76,23.74-44.62,23.47,44.62Z"/><path class="cls-2" d="M992.39,160c21.11-4.21,23.91-19.42,23.91-27.22,0-8.91-4.49-29-31-29H912.62v92.11h15.27V160.74h46.49l24.93,35.11h17.75Zm-64.5-13V117.48h53.68q19.09,0,19.09,15.27Q1000.66,147,983,147Z"/><path class="cls-2" d="M560.67,140.83c-22.62-1.33-39.25-1.68-39.25-12.72,0-10.39,15.56-13.38,32.61-13.38,18.73,0,29.08,1.8,42.05,4.42l2.59-12.84a204.82,204.82,0,0,0-43.49-5.07c-43.55,0-49.92,18.48-49.92,27.56,0,9.59,3.55,23.44,42.62,25.52,24.44,1.3,42.74,2.08,42.74,14.05,0,5-2.59,15.86-34.85,15.86-24.95,0-37.66-3.73-47.79-6.36l-1.83,13.76c16.44,5.36,38,6.38,49.49,6.38,46.48,0,51.52-20.91,51.52-30.66C607.16,151,594.09,143.06,560.67,140.83Z"/><path class="cls-3" d="M307.74,173.66a102.37,102.37,0,0,0-14.57-23.11c-10.92-13.16-24.69-23.66-39.55-32l0,0-.1,0-1.2-.65a1.09,1.09,0,0,1,0,.18l.67.37a1.71,1.71,0,0,0-.71.24c0,.1,0,.2,0,.3a1.59,1.59,0,0,1,.81-.31.76.76,0,0,1,.42.12c.6.39.06,1.74-.56,2.9a12.28,12.28,0,0,0-.95,1.18s0,0,0,0c0,.35-.06.7-.1,1.06.15-.21.29-.41.42-.62.24-.4.49-.83.72-1.25a4.62,4.62,0,0,1,2.69-1.79.86.86,0,0,1,.43.11.84.84,0,0,1,.41.59,3.36,3.36,0,0,1-.63,2.17,9.33,9.33,0,0,0-.87.93A10.16,10.16,0,0,0,253.8,126c-1,1.07-1.71,1.5-2.31,1.35,0,0,0,.27,0,.27a1.23,1.23,0,0,1,0,.19,97.72,97.72,0,0,1,22.8,18.48c7,7.73,12.84,16.66,16.06,26.56a44,44,0,0,1,2.26,15.27,32.59,32.59,0,0,1-4.08,14.71A50.21,50.21,0,0,1,279,215a35.61,35.61,0,0,1-13.09,7.74,40.33,40.33,0,0,1-15.14,1.75,63.24,63.24,0,0,1-15.11-3,123.61,123.61,0,0,1-27.9-13.6c-2.55-1.61-5.06-3.31-7.54-5.05-1-.68-1.92-1.37-2.88-2.07q-7.54-5.46-14.67-11.45c-.49-.41-1-.84-1.45-1.26l-.88-.76c-6.73-5.78-13.25-11.86-19.36-18.22l-2.08,0-1.13,2c.3.3.6.59.89.89l-.46,0a19.07,19.07,0,0,0-3.26.32l.36-.55c-1.49.38-3,.76-4.46,1.18l-.43.55c-5.8,1.94-14.06,6.1-25.67,14.45-8.14,5.85-14.55,12.05-18.61,17.82a21.46,21.46,0,0,1-5.5.84c-2.86,0-4.93-.86-6.32-2.62a5.49,5.49,0,0,1-1-4.64,13.55,13.55,0,0,1,1.43-3.78c-2.44,1.41-4.85,2.88-7.19,4.43a161.64,161.64,0,0,0,13.17,22.52A193.49,193.49,0,0,0,118,243.92a195.63,195.63,0,0,0,30.05,26.28c.64-.36,1.28-.71,1.91-1.08l.08.12c-.6.37-1.22.72-1.83,1.07.48.35,1,.69,1.45,1l.55-1.48.82.56c-.18.49-.38,1-.56,1.47l1.33.9,1.38-.81.32.22.12.2c-.41.26-.85.5-1.27.76,1.29.86,2.59,1.72,3.91,2.55l1.87-1.12.08.12-1.8,1.09c1.41.9,2.82,1.79,4.25,2.64q5.9,3.54,12,6.64c4.09,2.06,8.25,4,12.53,5.72A116.57,116.57,0,0,0,211.83,298c18.19,2.63,37.27.39,53.95-7.53a86,86,0,0,0,22.66-15.56,92.59,92.59,0,0,0,16.77-21.72,86.88,86.88,0,0,0,10-53.18A91.66,91.66,0,0,0,307.74,173.66ZM255.64,120a3.69,3.69,0,0,0-2.2,1.16,3.3,3.3,0,0,0,.45-2.18l1.76,1Zm58.57,80.23c.08.65.13,1.3.19,2a6.84,6.84,0,0,0-1.45-1.09,3.53,3.53,0,0,0,1.23-.82Zm-16.08-9.13c.82.06,1.69.11,2.68.11s2.08-.05,3-.13a30.54,30.54,0,0,0,3.18-.42c4.45.25,5.14,1.3,5.21,1.79a.52.52,0,0,1-.15.46c-.47.57-1.75,1.05-3.51,1.39a51.92,51.92,0,0,0-5.37-.32,42.44,42.44,0,0,0-6.69.32,5.63,5.63,0,0,1-2.68-1,.25.25,0,0,1-.09-.15C293.76,192.59,295,191.64,298.13,191.07Zm-4.49-.19c0-.32.07-.64.1-1a4.31,4.31,0,0,0,.86.46A6.63,6.63,0,0,0,293.64,190.88ZM307.18,189c-.79-.05-1.59-.06-2.33-.06s-1.46,0-2.22,0a32.19,32.19,0,0,0-4.82.49c-2.39-.25-3.45-.78-3.46-1.11,0-.84.86-1.52,2.59-2a15.07,15.07,0,0,0,2,.13,24.78,24.78,0,0,0,3-.19,30.28,30.28,0,0,0,4.88-.9c2.61.17,3.9.78,4,1.39a.9.9,0,0,1-.2.72C310.35,187.8,309.54,188.47,307.18,189Zm-13.35-2.85c0-.29,0-.59,0-.88a3.32,3.32,0,0,0,.67.41A3.83,3.83,0,0,0,293.83,186.14Zm-.33-4.25c0-.3-.09-.61-.14-.91a4.15,4.15,0,0,0,.76.38A3.6,3.6,0,0,0,293.5,181.89Zm.05,13.15a5.47,5.47,0,0,0-.68.38c.06-.23.11-.46.16-.69A3.76,3.76,0,0,0,293.55,195Zm-.31,2.48c.1-.39.67-1.13,3.44-1.55a38.07,38.07,0,0,0,6.05.47c.42,0,.82,0,1.17,0a33.49,33.49,0,0,0,4.5-.44c3.1.4,4.59,1.16,4.71,2.36a.89.89,0,0,1-.2.75,4.44,4.44,0,0,1-2.61.88,34.71,34.71,0,0,0-7.74-1.25,39,39,0,0,0-7.48.08,3.56,3.56,0,0,1-1.77-1A.33.33,0,0,1,293.24,197.52ZM313.59,196a5.71,5.71,0,0,0-1.77-.95,4.35,4.35,0,0,0,1.43-1C313.37,194.65,313.49,195.3,313.59,196ZM312,188.26c.17.66.34,1.32.5,2a7,7,0,0,0-1.9-.78,4.33,4.33,0,0,0,1.29-1C311.89,188.37,311.92,188.31,312,188.26Zm-1.54-5a.67.67,0,0,0,.06-.12c.17.52.33,1.05.49,1.57a6.64,6.64,0,0,0-1.46-.56A3.51,3.51,0,0,0,310.42,183.28ZM308.3,179a3.17,3.17,0,0,0,.42-.76c.2.5.39,1,.58,1.52a4.79,4.79,0,0,0-1.32-.45C308.08,179.17,308.21,179.07,308.3,179Zm.95,2.77a.78.78,0,0,1-.09.73,4.16,4.16,0,0,1-2.29,1.32c-.49,0-1-.05-1.58-.05-1,0-2.18.06-3.37.17a28.92,28.92,0,0,0-5.25.86c-1.45-.24-2.35-.72-2.36-1.35s.92-1.14,2.53-1.65h.26a35.45,35.45,0,0,0,3.78-.26l.21,0a22.8,22.8,0,0,0,4.47-.84l.39,0C308.57,180.61,309.09,181.21,309.25,181.73Zm-2.08-3.66a3.85,3.85,0,0,1-1.66,1.06c-1.25,0-2.7.14-4.2.27a25.35,25.35,0,0,0-4.9.92c-1.62-.08-2.57-.45-2.69-1.07a.68.68,0,0,1,.11-.53,4.93,4.93,0,0,1,2.42-1.35c.94,0,1.95-.09,2.83-.17a17.36,17.36,0,0,0,5.45-1.31h.11c1,0,2.73.13,2.84,1A1.41,1.41,0,0,1,307.17,178.07Zm-14.5-3.3a.45.45,0,0,1,.07-.38c.35-.61,1.57-1.29,3.3-1.92.79-.13,1.65-.3,2.59-.52.73-.18,1.5-.38,2.24-.64.36,0,.71-.05,1-.05,1.16,0,3.15.2,3.49,1.48a1.13,1.13,0,0,1-.18,1,2.61,2.61,0,0,1-.87.73,26.1,26.1,0,0,0-4.42.54,34.65,34.65,0,0,0-4.1,1C293.35,176,292.83,175.34,292.67,174.77Zm13.67-.26a2.71,2.71,0,0,0,.43-1c.07.17.15.33.23.5s.25.62.39.93a4.58,4.58,0,0,0-1.13-.33A.34.34,0,0,1,306.34,174.51Zm-2-5.42c.06-.12.11-.25.16-.37.34.67.69,1.34,1,2a5,5,0,0,0-2-.72A3.07,3.07,0,0,0,304.29,169.09Zm-2.73-4.57a2.57,2.57,0,0,0,.2-.65c.34.59.69,1.18,1,1.77a4.52,4.52,0,0,0-1.44-.21l-.41,0A3.44,3.44,0,0,0,301.56,164.52Zm-2.69-4.47a2.16,2.16,0,0,0,.16-.55c.34.52.67,1,1,1.56a4.74,4.74,0,0,0-1.55-.23h-.1A3.22,3.22,0,0,0,298.87,160.05Zm-3.24-4.46a2.79,2.79,0,0,0,.12-.74c.52.7,1,1.4,1.54,2.11a5.07,5.07,0,0,0-1.6-.23c-.22,0-.48,0-.73.06A3.62,3.62,0,0,0,295.63,155.59ZM292.28,151a2.64,2.64,0,0,0,.06-.55l.37.45c.4.48.78,1,1.17,1.47a5.49,5.49,0,0,0-2.22-.11A3.16,3.16,0,0,0,292.28,151ZM289,147.25a2.12,2.12,0,0,0,0-.56l1.37,1.53a5.1,5.1,0,0,0-1.78-.12A2.53,2.53,0,0,0,289,147.25Zm-3.62-4a2.2,2.2,0,0,0,0-.44c.6.61,1.19,1.22,1.77,1.84a6.34,6.34,0,0,0-2.4,0A3.17,3.17,0,0,0,285.41,143.27Zm-4-4.31c.69.65,1.38,1.29,2.06,1.95a3.91,3.91,0,0,0-.86-.09,6.87,6.87,0,0,0-1.72.25,3.35,3.35,0,0,0,.56-1.4A2.11,2.11,0,0,0,281.45,139Zm-3.86-3.44c.68.59,1.37,1.19,2,1.79a4.79,4.79,0,0,0-2.22.14,3,3,0,0,0,.29-1.08A2.68,2.68,0,0,0,277.59,135.52Zm-.63.81a2.73,2.73,0,0,1-.68,1.54,11.91,11.91,0,0,0-1.4.74,9.67,9.67,0,0,0-2,1.7,5,5,0,0,1-2,.58,1.49,1.49,0,0,1-1.09-.42,1,1,0,0,1-.31-.76,4,4,0,0,1,1.09-2.28,10.52,10.52,0,0,0,1.6-1.23,6.18,6.18,0,0,0,.75-.83,4.79,4.79,0,0,1,2.3-.71,1.94,1.94,0,0,1,1.25.37A1.55,1.55,0,0,1,277,136.33Zm-3.29-4.05c.7.56,1.4,1.12,2.09,1.69a3.31,3.31,0,0,0-.55-.05,5,5,0,0,0-1.66.34,3.26,3.26,0,0,0,.25-1.31A2.41,2.41,0,0,0,273.67,132.28Zm-.54.69a3,3,0,0,1-.58,1.77,7.75,7.75,0,0,0-1.48,1.08,10.54,10.54,0,0,0-1.14,1.22,5.35,5.35,0,0,1-2.47.85,1.26,1.26,0,0,1-.95-.34c-.59-.62-.11-1.78.59-2.82a11.25,11.25,0,0,0,1.5-1.27,7.89,7.89,0,0,0,1-1.19,4.41,4.41,0,0,1,2.08-.66,1.56,1.56,0,0,1,1,.3A1.39,1.39,0,0,1,273.13,133Zm-2.95-3.38c.62.46,1.23.93,1.83,1.4a3.26,3.26,0,0,0-.33-.05,4.52,4.52,0,0,0-1.55.32,2.67,2.67,0,0,0,.2-1.08A2,2,0,0,0,270.18,129.59Zm-.45.63a2.53,2.53,0,0,1-.43,1.44,6.15,6.15,0,0,0-1.3,1,10.9,10.9,0,0,0-1.51,1.83,4.53,4.53,0,0,1-2.32.87,1.29,1.29,0,0,1-.91-.31,1,1,0,0,1-.27-.74,4.8,4.8,0,0,1,.84-2.36c.38-.33.77-.7,1.18-1.12a12.6,12.6,0,0,0,.81-1,4.45,4.45,0,0,1,2.36-.89,1.61,1.61,0,0,1,1,.3A1.34,1.34,0,0,1,269.73,130.22Zm-3.31-3.34c.71.49,1.4,1,2.1,1.49-.11,0-.22,0-.34,0a4.28,4.28,0,0,0-1.79.46,2.74,2.74,0,0,0,.23-1.33A2,2,0,0,0,266.42,126.88Zm-.33.65a2.57,2.57,0,0,1-.55,1.75,6.82,6.82,0,0,0-1.09.87,8.79,8.79,0,0,0-1.2,1.53,4.21,4.21,0,0,1-2.53,1.19,1.25,1.25,0,0,1-.89-.32,1,1,0,0,1-.29-.71,4.14,4.14,0,0,1,.85-2.24,10.35,10.35,0,0,0,1-1,8.15,8.15,0,0,0,.66-.85,4.85,4.85,0,0,1,2.85-1.22,1.39,1.39,0,0,1,.67.14A1.22,1.22,0,0,1,266.09,127.53Zm-3.43-3.2c.86.56,1.72,1.13,2.56,1.71a3.16,3.16,0,0,0-.32,0,4.57,4.57,0,0,0-2.24.69,3.22,3.22,0,0,0,.3-1.56A1.84,1.84,0,0,0,262.66,124.33Zm-.16.86a3.34,3.34,0,0,1-.67,2.06,8.88,8.88,0,0,0-.91.84,8.67,8.67,0,0,0-1,1.33,4.64,4.64,0,0,1-2.55,1.19,1,1,0,0,1-.6-.18.66.66,0,0,1-.23-.46,5.17,5.17,0,0,1,.95-2.76,8.58,8.58,0,0,0,.8-.95c.15-.21.36-.51.57-.86a3.8,3.8,0,0,1,2.4-1.4,1.21,1.21,0,0,1,.72.23A1.31,1.31,0,0,1,262.5,125.19Zm-2.78-2.56a1.45,1.45,0,0,0-.1-.25c.64.4,1.28.8,1.91,1.22a2.94,2.94,0,0,0-2.13.7A3.12,3.12,0,0,0,259.72,122.63Zm-2.93-1.71a1,1,0,0,0-.15-.36l1.92,1.16a3.86,3.86,0,0,0-2.1.93A3,3,0,0,0,256.79,120.92Zm-2.55,5c.3-.35.62-.75.95-1.21a13.07,13.07,0,0,0,.8-1.19,4.54,4.54,0,0,1,2.57-1.45.89.89,0,0,1,.47.12.7.7,0,0,1,.3.47,3.8,3.8,0,0,1-.68,2.24,8.06,8.06,0,0,0-.77.85,13.27,13.27,0,0,0-.93,1.38,5.29,5.29,0,0,1-2.78,1.67.53.53,0,0,1-.32-.09.67.67,0,0,1-.25-.45A4.49,4.49,0,0,1,254.24,126Zm-2.56,1.76a.87.87,0,0,0,.28,0,3.4,3.4,0,0,0,1.52-.91,3.57,3.57,0,0,0-.26,1.6s0,0,0,0a1,1,0,0,0,.09.27Zm2.49,1.47a1.17,1.17,0,0,0,.32,0,5.15,5.15,0,0,0,2-1.07,4,4,0,0,0-.42,1.92,1.28,1.28,0,0,0,.14.43C255.53,130,254.85,129.61,254.17,129.19Zm2.9,1.84a1.23,1.23,0,0,0,.33,0,4.23,4.23,0,0,0,2-.71,3.49,3.49,0,0,0-.36,1.51,1.28,1.28,0,0,0,.07.35,2.24,2.24,0,0,0,.1.26C258.49,132,257.78,131.5,257.07,131Zm3.34,2.31a1.75,1.75,0,0,0,.33.06,3.92,3.92,0,0,0,2-.7,4.08,4.08,0,0,0-.35,1.57,1.63,1.63,0,0,0,.08.45c0,.07,0,.13.07.2C261.84,134.38,261.13,133.86,260.41,133.34Zm3.34,2.51a2.83,2.83,0,0,0,.42.06,4.32,4.32,0,0,0,1.77-.48,2.87,2.87,0,0,0-.29,1.84c0,.06,0,.1,0,.16C265.05,136.89,264.4,136.36,263.75,135.85Zm8.06,7.08c-1.55-1.52-3.15-3-4.8-4.4a1.76,1.76,0,0,0,.45,0,5.5,5.5,0,0,0,1.72-.4,3.28,3.28,0,0,0-.44,1.55,1.42,1.42,0,0,0,.06.31c.55.52,1.1,1,1.64,1.57a3,3,0,0,0,.43,0,4.49,4.49,0,0,0,1.21-.23,2.83,2.83,0,0,0-.3.92A2.05,2.05,0,0,0,271.81,142.93Zm.78-.5a3.06,3.06,0,0,1,.86-1.6,15.93,15.93,0,0,0,1.64-1,8.1,8.1,0,0,0,1.53-1.28,5.58,5.58,0,0,1,2.25-.59,2,2,0,0,1,1.55.62,1.18,1.18,0,0,1,.27.95,3.77,3.77,0,0,1-1.22,2c-.32.14-.64.28-1,.45a11.26,11.26,0,0,0-2.12,1.48,6.08,6.08,0,0,1-1.92.34,2.27,2.27,0,0,1-1.63-.5A1.05,1.05,0,0,1,272.59,142.43Zm2.31,3.31a2.06,2.06,0,0,0,0,.35l-.2-.22c-.44-.47-.9-.93-1.36-1.39a4.17,4.17,0,0,0,1.16.16,6.48,6.48,0,0,0,1-.09A3.33,3.33,0,0,0,274.9,145.74Zm.86.17a3.68,3.68,0,0,1,1.27-1.8,8.61,8.61,0,0,0,1.82-1,11.14,11.14,0,0,0,1-.77,7.5,7.5,0,0,1,2.84-.68,2.19,2.19,0,0,1,1.67.59,1,1,0,0,1,.23.85,3.62,3.62,0,0,1-1.22,1.85c-.41.12-.82.26-1.26.43a8.54,8.54,0,0,0-2.61,1.58,8,8,0,0,1-2,.32,1.8,1.8,0,0,1-1.45-.48A1.07,1.07,0,0,1,275.76,145.91Zm2.31,3.07a2.17,2.17,0,0,0-.09.65c-.43-.51-.87-1-1.31-1.53a3.81,3.81,0,0,0,.79.09,6.41,6.41,0,0,0,1-.1A3.47,3.47,0,0,0,278.07,149Zm1,1.21a1.07,1.07,0,0,1-.09-.94,3.73,3.73,0,0,1,1.08-1.53,12.63,12.63,0,0,0,2.7-1.19,8.59,8.59,0,0,0,.9-.66,8.86,8.86,0,0,1,2.44-.42,2.28,2.28,0,0,1,1.66.5,1.24,1.24,0,0,1,.36,1.1,2.59,2.59,0,0,1-1.09,1.38,12.65,12.65,0,0,0-1.61.58,12.87,12.87,0,0,0-2.07,1.2C280.9,151.12,279.72,151.13,279.06,150.19Zm1.76,2.76a1.94,1.94,0,0,0-.05.2c-.37-.49-.73-1-1.11-1.47a3.16,3.16,0,0,0,.85.13,6.12,6.12,0,0,0,1.12-.13A3.88,3.88,0,0,0,280.82,153Zm1,1.09a.93.93,0,0,1,0-.75A6.15,6.15,0,0,1,284,151c.41-.15.82-.31,1.29-.51a11.46,11.46,0,0,0,2-1,7.09,7.09,0,0,1,2-.34,2.23,2.23,0,0,1,1.77.63,1.25,1.25,0,0,1,.26,1.11,3.46,3.46,0,0,1-1.64,1.93c-.38.12-.77.25-1.17.4a13.3,13.3,0,0,0-2.07,1,9.89,9.89,0,0,1-2.91.56C282.87,154.72,282.07,154.61,281.78,154Zm2,2.9a1.77,1.77,0,0,0-.08.31c-.35-.54-.71-1.08-1.08-1.61a4.11,4.11,0,0,0,.92.1,6.67,6.67,0,0,0,1.05-.09A3.83,3.83,0,0,0,283.74,156.94Zm1.06,1.11a.86.86,0,0,1,0-.76,5.28,5.28,0,0,1,2.36-2.3,19.86,19.86,0,0,0,1.88-.75c.28-.13.55-.27.8-.41a9.25,9.25,0,0,1,2.77-.53,2.28,2.28,0,0,1,1.91.73,1.36,1.36,0,0,1,.12,1.23,3.75,3.75,0,0,1-1.74,1.9l-.47.1a18.33,18.33,0,0,0-3.09,1.17,11.47,11.47,0,0,1-2.56.37C285.26,158.8,284.92,158.24,284.8,158.05Zm1.35,3.21q-.48-.82-1-1.65a4.14,4.14,0,0,0,1.58.27l.42,0a4.08,4.08,0,0,0-.92,1.18C286.2,161.12,286.18,161.19,286.15,161.26Zm1.06,1.12a1,1,0,0,1,.07-.83,5.68,5.68,0,0,1,2.71-2.17c.44-.11.91-.25,1.4-.4a10.28,10.28,0,0,0,1.64-.68,10.8,10.8,0,0,1,2.66-.42c1.47,0,2,.51,2.12.82a1.05,1.05,0,0,1,0,.91,3.49,3.49,0,0,1-1.66,1.53c-.55.13-1.12.29-1.74.5a22.89,22.89,0,0,0-2.41,1,14.55,14.55,0,0,1-3.21.51C287.5,163.1,287.32,162.65,287.21,162.38Zm.47,1.73a4.14,4.14,0,0,0,1.11.15c.16,0,.34,0,.51,0a4.14,4.14,0,0,0-.95,1.18C288.14,165,287.9,164.54,287.68,164.11Zm1.58,2.62c-.19-.78.88-2,3.52-3.15l1.37-.38a14.08,14.08,0,0,0,2.15-.83,9.49,9.49,0,0,1,2.18-.31c.74,0,1.67.14,2,.82a1.32,1.32,0,0,1,0,1.14,4.29,4.29,0,0,1-2.27,1.87l-.66.16-.53.13a28.14,28.14,0,0,0-3.67,1.17,11.39,11.39,0,0,1-1.89.18C290.2,167.53,289.39,167.23,289.26,166.73Zm.84,2.64c-.11-.28-.21-.56-.33-.83a5.13,5.13,0,0,0,1,.18A4.61,4.61,0,0,0,290.1,169.37Zm.8,1.37a.44.44,0,0,1,.08-.4,6.78,6.78,0,0,1,3-1.88c.78-.16,1.63-.37,2.55-.65a14.31,14.31,0,0,0,1.65-.6,14.07,14.07,0,0,1,3.11-.49c1.41,0,1.74.51,1.87.89a1,1,0,0,1,0,.86,4.44,4.44,0,0,1-2.27,1.47,14.56,14.56,0,0,0-2.27.35,29.32,29.32,0,0,0-3.31,1,16.08,16.08,0,0,1-2.21.19C292.36,171.48,291.08,171.38,290.9,170.74Zm.74,2.86c-.11-.35-.22-.71-.34-1.06a5.07,5.07,0,0,0,1.18.21A3.74,3.74,0,0,0,291.64,173.6Zm.86,3a3.56,3.56,0,0,0,1,.46,3.8,3.8,0,0,0-.74.69Zm-.62,22.16a.2.2,0,0,1,0,.08,3.17,3.17,0,0,0,.55.56,6.2,6.2,0,0,0-1,.49C291.62,199.54,291.75,199.16,291.88,198.78Zm-.41,3.68c.34-.93,1.6-1.54,3.7-1.85a43,43,0,0,0,8.29,1.11c1.38.09,2.63.13,3.73.13a25.91,25.91,0,0,0,2.81-.13c3.57,1.14,3.82,2.64,3.81,3,0,1.12-1.62,1.85-4.35,2.07a56.6,56.6,0,0,0-7.77-1.81,55.07,55.07,0,0,0-8.75-1,3.64,3.64,0,0,1-1.39-1.14C291.4,202.65,291.44,202.52,291.47,202.46Zm-1.68,1.06,0-.09a2.26,2.26,0,0,0,.18.39,2.83,2.83,0,0,0,.31.42,6.31,6.31,0,0,0-1.13.33C289.4,204.22,289.6,203.87,289.79,203.52Zm-1,3.47c.14-.32.8-1.06,3.88-1.09a33.33,33.33,0,0,0,9.37,2.37,42.37,42.37,0,0,0,5.67.43c.51,0,1,0,1.41,0,3.71,1.23,4.58,2.42,4.47,3.32s-2.11,1.66-5.32,1.66h-.18c-2.24-.91-4.77-1.71-7.27-2.51l-.26-.09a47,47,0,0,0-10.05-1.72,4.36,4.36,0,0,1-1.68-1.5A.9.9,0,0,1,288.81,207ZM287,208.1a2.63,2.63,0,0,0,.21.57,4,4,0,0,0,.46.67,11,11,0,0,0-1.74.29C286.29,209.12,286.65,208.61,287,208.1Zm-1.88,4.07c.17-.44,1.32-1,4-1l1,0a40.16,40.16,0,0,0,9.83,3.28,39.69,39.69,0,0,0,7.51.95c3.8,1.54,6.56,3.31,5.94,5.52-.37,1.3-2.26,1.57-3.78,1.57a19.09,19.09,0,0,1-2.86-.25,50.89,50.89,0,0,0-8.24-3.88,82.81,82.81,0,0,0-12.09-3.93,4.28,4.28,0,0,1-1.32-1.47A1,1,0,0,1,285.11,212.17Zm-1.93.92a2.85,2.85,0,0,0,.22.74,1.87,1.87,0,0,0,.17.31l-.36,0a8.61,8.61,0,0,0-1,.08Q282.68,213.66,283.18,213.09Zm-4.66,4.61a3.85,3.85,0,0,0,.05.67c0,.16.1.33.15.5a11.28,11.28,0,0,0-1.35-.24C277.76,218.33,278.14,218,278.52,217.7Zm-6,4.19a6.18,6.18,0,0,0,.29,1.58,14.17,14.17,0,0,0-1.73-.83Q271.77,222.28,272.47,221.89ZM265.14,225a8.07,8.07,0,0,0-.06,2.43,15.57,15.57,0,0,0-2.52-1.75C263.43,225.47,264.28,225.24,265.14,225Zm-8.76,1.58a7.21,7.21,0,0,0-1,2.58,14.17,14.17,0,0,0-2.13-2.47C254.29,226.66,255.34,226.63,256.38,226.56Zm-10.71-.43a4.61,4.61,0,0,0-.4.37,7.36,7.36,0,0,0-1.14,1.66,11.12,11.12,0,0,0-1.54-2.53C243.61,225.82,244.64,226,245.67,226.13Zm1.73,33.25a89.3,89.3,0,0,1,.54,15.88,73.33,73.33,0,0,1-2.8-16.41c-.49-7.55-.86-14.76-.63-20.4C245.46,243.49,246.38,250.31,247.4,259.38ZM235,223.74l1.06.3a7.74,7.74,0,0,0-2.84,2.56,16.32,16.32,0,0,0-1.06-3.8C233.06,223.12,234,223.45,235,223.74Zm-9.74-3.58a10.89,10.89,0,0,0-2.6,1.75,14.14,14.14,0,0,0-.62-3.17C223.07,219.23,224.14,219.7,225.22,220.16Zm-10.29-4.93a17.72,17.72,0,0,0-4.8,3.11,18.18,18.18,0,0,0,0-5.78C211.7,213.48,213.31,214.36,214.93,215.23Zm-10.24-6a21.85,21.85,0,0,0-6.23,3.36,21.56,21.56,0,0,0,.93-6.78C201.13,207,202.91,208.14,204.69,209.26ZM188,197.62c1.59,1.21,3.19,2.41,4.8,3.58a23.18,23.18,0,0,0-5.86,2.31A18.57,18.57,0,0,0,188,197.62Zm-11.34-9.14c1.32,1.12,2.63,2.24,4,3.34l.53.42a24,24,0,0,0-6,1.74A17.53,17.53,0,0,0,176.61,188.48Zm-11.06-9.83q2.22,2.07,4.47,4.1a23.06,23.06,0,0,0-6,1.32,15,15,0,0,0,1.53-5.22C165.56,178.78,165.55,178.72,165.55,178.65Zm-39.13,11.59a122,122,0,0,1,19.85-12,137.25,137.25,0,0,1-15,13.58A93.21,93.21,0,0,1,111,204,86.62,86.62,0,0,1,126.42,190.24Zm-25,25.82c-.05.3-.09.61-.11.9q-2.61-4-5-8.19a12.63,12.63,0,0,0,4.35.73,20.47,20.47,0,0,0,3.32-.3A21.46,21.46,0,0,0,101.4,216.06Zm3.72,5.53a6.61,6.61,0,0,1-.9-5.08,21.76,21.76,0,0,1,3.59-8.22c8.34-2.49,18-8.48,25.26-14.18a131.61,131.61,0,0,0,19.15-18.2,20.72,20.72,0,0,1,6-1.08c1.75,0,3.07.4,3.72,1.13a3.53,3.53,0,0,1,.77,2.71c-.08,1.41-.71,3.67-2.8,7.05a111.07,111.07,0,0,0-24.22,15.74c-8.39,7.13-14.6,14.28-18.2,20.63a20.21,20.21,0,0,1-7.33,1.77A5.79,5.79,0,0,1,105.12,221.59Zm51.34-31.07A134.93,134.93,0,0,1,140.08,207a106,106,0,0,1-18,12.87,90.46,90.46,0,0,1,15.38-16.29A117.38,117.38,0,0,1,156.46,190.52ZM114,234.22c-2.09-2.53-4.13-5.1-6.08-7.74a10.89,10.89,0,0,0,2.26.23,18.89,18.89,0,0,0,5.49-.92A18.05,18.05,0,0,0,114,234.22Zm4,3.14c-2.18-2.87-1.58-7.45,1.34-12.91,9.3-4,19.19-12.24,22.69-15.3,9.43-8.24,16.15-15.43,20-21.3a24.14,24.14,0,0,1,8.76-2.35,4.07,4.07,0,0,1,2.57.68,1.94,1.94,0,0,1,.62,1.58c.09,1.91-.93,4.76-2.69,8.09a101,101,0,0,0-23,17.59c-6.77,6.81-13.53,15.38-17.46,23.07-3.37,1.65-6.37,2.58-8.69,2.58A4.74,4.74,0,0,1,117.92,237.36Zm50.42-36.71a119.44,119.44,0,0,1-15.57,19.22A101.57,101.57,0,0,1,135.16,234a106.94,106.94,0,0,1,14.9-18.68A105.68,105.68,0,0,1,168.34,200.65Zm-41,48.17c-2.34-2.3-4.64-4.65-6.86-7.07a10.38,10.38,0,0,0,1.51.12,19.79,19.79,0,0,0,7-1.55,20.64,20.64,0,0,0-1.68,7.63A8.28,8.28,0,0,0,127.34,248.82Zm7.95,7.43h.14a20.2,20.2,0,0,0,8.17-2.14,16.27,16.27,0,0,0,.19,9.16Q139.44,259.89,135.29,256.25Zm.14-2.71a5.25,5.25,0,0,1-3.82-1.35,5.67,5.67,0,0,1-1.63-4.27c0-2.61,1-5.8,2.63-9.25,7.6-3.89,15.93-10.69,22.12-16.82s14.11-15.91,18.5-24c3.73-1.91,7-3,9.28-3a3.16,3.16,0,0,1,2,.51,2.43,2.43,0,0,1,.75,1.71c.22,2-.54,5-2.07,8.65l-.29.18c-6.77,4.42-14.59,11.46-22,19.82-8.09,9.11-13.69,17.7-16.22,24.86C141.22,252.43,138,253.54,135.43,253.54Zm45.44-43a132.2,132.2,0,0,1-13.78,20.58,87.91,87.91,0,0,1-18.67,17.16c2.81-6.17,7.73-13.29,14.41-20.81A124.27,124.27,0,0,1,180.87,210.54Zm-29.3,58.53c.26,0,.52,0,.79,0a17.63,17.63,0,0,0,7.61-2,17.79,17.79,0,0,0,0,6.27,12.15,12.15,0,0,0,.46,1.58Q155.93,272.13,151.57,269.07Zm-3.36-3.91c-2.81-2.19-3.29-6.79-1.4-12.7,8.33-4.76,17.13-13.1,22.4-19.65,6.45-8,12.76-17.54,16.17-25.37,5.05-3.13,7.83-3.85,9.26-3.85A2.15,2.15,0,0,1,196,204c.8.62,1.68,3-1.18,11.49A150.07,150.07,0,0,0,174.5,237c-4.37,5.89-11.28,17.09-13.82,26.75C155.58,266.73,151,267.31,148.21,265.16Zm44.62-44.53a132.76,132.76,0,0,1-11.63,21.12c-5.79,8.71-11.67,15.44-17.13,19.63,2.75-8,8.16-17.06,12.49-22.9A147.07,147.07,0,0,1,192.83,220.63Zm-27,56.93a6.67,6.67,0,0,1-3.3-4.74,17.77,17.77,0,0,1,.39-7.39l.31-.2c6.4-4.15,13.38-11.76,20.21-22,6.12-9.21,11-18.52,13.69-26.22a1.42,1.42,0,0,0,.05-.16c3.83-3.15,7.19-5.26,9.2-5.26a1.15,1.15,0,0,1,.66.16c1.32.89,1.13,4.58,0,9.56-7.3,7.67-14.9,20-17.91,25.56-2.48,4.54-7.75,16.16-9.38,26.35-3.62,3.19-7.27,5.28-10.49,5.28A6.78,6.78,0,0,1,165.8,277.56Zm39.91-51a153,153,0,0,1-9.35,24.27,85.5,85.5,0,0,1-13.47,19.35A97.73,97.73,0,0,1,191.33,248,147.22,147.22,0,0,1,205.71,226.55ZM174,282.64c-1.06-.55-2.11-1.13-3.16-1.7a19.2,19.2,0,0,0,8.54-4,20,20,0,0,0,.83,7.88c.14.39.32.76.49,1.12Q177.28,284.36,174,282.64ZM186.2,288a6.38,6.38,0,0,1-3.69-4.06c-.89-2.48-.92-5.76-.43-9.33,7.6-7,14.14-17.77,16.58-22.66,1.84-3.69,8.3-18.39,10.75-29.57,3.08-3.16,5.86-5.17,7.85-5.17a2,2,0,0,1,.83.16c1.52.66,2.22,3.1,2.16,7-4.37,5.31-9.24,15.05-14.7,29.4-5.21,13.68-6.22,23-5.67,29.11-3.32,3.82-6.72,5.86-10,5.86A9.69,9.69,0,0,1,186.2,288Zm33.7-59.08c-.86,7.06-3.32,17-7.25,28.7-3.18,9.52-6.76,17.06-10.5,22.35,0-5.73,1.3-13.86,5.67-25.33C212.77,241.66,216.76,233.72,219.9,228.94Zm-27.07,61.89a17,17,0,0,0,7.53-4.65,18.16,18.16,0,0,0,1.84,5.12,12,12,0,0,0,2.15,2.79A111.93,111.93,0,0,1,192.83,290.83Zm18.2,3.58a8.07,8.07,0,0,1-1.48-.14,7.81,7.81,0,0,1-5.23-4.16,17.45,17.45,0,0,1-1.91-6.19c5.41-6.58,9.62-16.55,12.61-25.49,3.8-11.36,7.43-24.37,7.68-33.23,2.23-2.52,3.86-3.18,5-3.18a2.58,2.58,0,0,1,.86.14c.85.29,2.19,1.79,2.65,8-2.33,5.08-4.8,13.77-7.74,28.22-2.66,13.08-2.42,21.73-1,27.46C218.23,293.24,213.56,294.41,211,294.41Zm20.29-58a223,223,0,0,1-1.91,23.93c-1.22,10-3.13,17-5.3,22.06-.76-5.32-.56-12.83,1.62-23.51A204,204,0,0,1,231.32,236.39ZM215.24,296c2.47-1,5.35-3,8.08-7.14a16.87,16.87,0,0,0,2.61,4.65,11.35,11.35,0,0,0,4,3.17A99.28,99.28,0,0,1,215.24,296Zm12.51-4a16.22,16.22,0,0,1-2.85-5.82c2.88-5.41,5.44-13.5,6.92-25.58,1.8-14.65,2.2-24,1.81-30.05,1.55-3.15,3.08-4.66,4.63-4.66h.23c1.79.15,3.19,1.8,4.45,5.87-1.14,5.46-.91,14.28-.08,27.22.55,8.55,2.13,15.88,4.45,21.44-.83,4.58-2.32,8.16-4.48,10.69a11.35,11.35,0,0,1-8.41,4.12A8.2,8.2,0,0,1,227.75,292Zm13.23,3.7a13.86,13.86,0,0,0,3.64-3.06,22.24,22.24,0,0,0,4.33-8.81c2.38,4.3,5.33,7,8.63,7.8A87.87,87.87,0,0,1,241,295.72Zm21-6.57a7,7,0,0,1-2.46.47c-3.76,0-7.2-3.54-9.79-9.46.93-5.7,1-12.72,0-21-1.53-13.57-2.82-22.21-4.4-27.58a8,8,0,0,1,1.6-3.48,2.7,2.7,0,0,1,2.12-.9c2.07,0,4.07,2.19,6.06,5.86.15,6,2.36,14.71,5,23.69a42,42,0,0,0,7.46,14.61C268.71,279.72,267.77,287,262,289.15Zm-3.84-49.5c1.83,4.57,3.68,10.07,5.59,16a109.09,109.09,0,0,1,2.92,10.65,43,43,0,0,1-4.43-10.18Q259.34,246.19,258.14,239.65Zm9.66,47.63c2-3,2.8-7.37,2.37-13.12,3.24,3.08,6.81,4.88,10.21,4.88l.51,0A84.14,84.14,0,0,1,267.8,287.28ZM286.3,273a4.35,4.35,0,0,1-2.16,2.89,8,8,0,0,1-3.76.95c-3.54,0-7.32-2.36-10.62-6.23a96.42,96.42,0,0,0-3.86-15.69c-3.29-10.14-6-17.64-8.61-22.6,0-3.09.58-4.86,1.87-5.25a1.86,1.86,0,0,1,.48-.06c1.5,0,3.69,1.51,6.32,4.27,2.38,7.44,8.42,17,9.31,18.36a52,52,0,0,0,8.77,10C286.09,264.86,287.17,269.79,286.3,273Zm-15.92-36.48c2.37,3.09,4.93,6.84,7.6,11.16,1.31,2.11,2.57,4.38,3.71,6.69a45.54,45.54,0,0,1-4.62-5.9A108.73,108.73,0,0,1,270.38,236.51Zm18.32,35.7c.37-2.86-.26-6.43-1.47-10.17a12.79,12.79,0,0,0,6.66,2.37,6.86,6.86,0,0,0,2.14-.35A89.89,89.89,0,0,1,288.7,272.21Zm8.16-11a4.37,4.37,0,0,1-3,1.1c-2.38,0-5.22-1.6-8-3.85a80.45,80.45,0,0,0-6.05-11.91c-3.57-5.78-7.94-12.18-12.07-16.54a10.12,10.12,0,0,1-.56-4.64,1.27,1.27,0,0,1,.57-.93,1.3,1.3,0,0,1,.75-.19c1.46,0,3.58,1.21,5.89,2.93,3.16,5.53,9.05,12.1,10,13.1a49.55,49.55,0,0,0,10.09,8.65c2.08,3.5,3.6,7.05,3.49,9.65A3.46,3.46,0,0,1,296.86,261.17Zm-16.4-28.87c2.28,2.15,4.36,4.28,5.78,5.73l.17.17a58.44,58.44,0,0,1,4.77,5.72,57.63,57.63,0,0,1-5.24-5.08C284,236.75,282.14,234.49,280.46,232.3Zm23.46,20.1q-1.79,3.1-3.79,6.06a18.06,18.06,0,0,0-2.27-7.91,10.88,10.88,0,0,0,3.75.75,6.78,6.78,0,0,0,3.37-.86C304.63,251.1,304.29,251.76,303.92,252.4Zm1.52-5a4.69,4.69,0,0,1-3.83,1.84,11.59,11.59,0,0,1-5.45-1.75,64.13,64.13,0,0,0-8.22-10.76l-.17-.18a115.33,115.33,0,0,0-11.88-11,8.54,8.54,0,0,1-1.38-4c0-.31.13-.4.17-.43a2.79,2.79,0,0,1,1.76-.49,11.26,11.26,0,0,1,3.75.84c3.14,4,9.82,8.21,12.2,9.64a50.91,50.91,0,0,0,8.63,4.21c2.72,2.71,5,5.72,5.39,8.4A4.44,4.44,0,0,1,305.44,247.38Zm-19.23-22.89c2.41,1.42,4.7,2.95,6.4,4.08l.66.44c.67.45,1.41,1,2.19,1.55-.67-.36-1.35-.75-2-1.16A71.61,71.61,0,0,1,286.21,224.49Zm22.2,18.71a15.76,15.76,0,0,0-3.68-6.88,13,13,0,0,0,2.07.2,6.59,6.59,0,0,0,4.48-1.51A83.56,83.56,0,0,1,308.41,243.2Zm2.5-10.95a4.1,4.1,0,0,1-4.11,2.27,14.84,14.84,0,0,1-4.58-.9,59.19,59.19,0,0,0-7.8-6.33l-.66-.44c-3.28-2.2-8.11-5.42-12.41-7.13a4.63,4.63,0,0,1-.81-1.72,1.26,1.26,0,0,1,.22-1.1,3,3,0,0,1,2.45-.78,14.93,14.93,0,0,1,2.64.3c2.85,2,7.48,3.69,11.71,5.25l1.17.43a43.57,43.57,0,0,0,7.23,2c3.24,2,4.58,3.7,5.08,5A3.72,3.72,0,0,1,310.91,232.25Zm2-3.79a.38.38,0,0,0,0-.1,10.2,10.2,0,0,0-3-3.88,7.2,7.2,0,0,0,4-1C313.59,225.14,313.28,226.81,312.93,228.46Zm1.58-10.79a10,10,0,0,0-3-2.43,5.64,5.64,0,0,0,3.24-1.49C314.71,215.06,314.62,216.36,314.51,217.67Zm-2-9.57a5.21,5.21,0,0,0,2.21-1.28c0,1,.06,2.06.07,3.1A6.83,6.83,0,0,0,312.53,208.1Z"/><path class="cls-4" d="M168.07,75.55a66.45,66.45,0,0,0-5.36-15A42.49,42.49,0,0,0,153,47.8a37.35,37.35,0,0,0-14-7.65,51.48,51.48,0,0,0-15.79-2,34.13,34.13,0,0,0-15.34,4.19,45.16,45.16,0,0,0-12.27,10c-7,8-11.68,17.68-14.76,27.71a97.87,97.87,0,0,0-4.21,29.29l.17-.08a97.57,97.57,0,0,1,4.61-29c3.2-9.91,8-19.44,15-27.19a44.11,44.11,0,0,1,12.09-9.59,32.7,32.7,0,0,1,14.77-3.82,50,50,0,0,1,15.26,2.13,35.48,35.48,0,0,1,13.26,7.46,40.44,40.44,0,0,1,9.08,12.24,64.1,64.1,0,0,1,5,14.59,104.33,104.33,0,0,1,2.08,16c.08,1.26.13,2.51.17,3.76.1,3.71.07,7.43-.08,11.13V107q-.07,1.8-.18,3.6c-.33,5.33-.86,10.66-1.57,16-.14,1.08-.3,2.16-.46,3.23,0,.32-.09.65-.14,1-.13.83-.25,1.65-.38,2.47-.1.58-.19,1.15-.29,1.73-.17,1-.34,2-.52,3.06-.07.4-.15.81-.23,1.21a285.67,285.67,0,0,1-6.52,28l1.29,1.78,2.08,0a290.43,290.43,0,0,0,6.62-30.45,236.9,236.9,0,0,0,3.14-31.47A126.61,126.61,0,0,0,168.07,75.55Z"/><path class="cls-4" d="M184.36,99.15c-.08-3-.25-5.93-.53-8.89A102.93,102.93,0,0,0,180.7,72.7,71.14,71.14,0,0,0,174,56.21a49.74,49.74,0,0,0-11.44-13.79,44.63,44.63,0,0,0-15.84-8.35,55.34,55.34,0,0,0-14.39-2.22c-1.61,0-3.21,0-4.82.06A42.78,42.78,0,0,0,109,37.43,47.59,47.59,0,0,0,104.9,40a54.29,54.29,0,0,0-10.57,9.9A74.64,74.64,0,0,0,82.94,68.79a95.79,95.79,0,0,0-3.7,10.43,105.44,105.44,0,0,0-4.15,30.83l.17-.08a104.63,104.63,0,0,1,5-32.25c.23-.7.47-1.39.71-2.08A84.19,84.19,0,0,1,88.9,59.05a67.34,67.34,0,0,1,8.51-11q1.52-1.58,3.15-3.05A49.06,49.06,0,0,1,111,37.76a39.74,39.74,0,0,1,16.33-4.34,60.59,60.59,0,0,1,6.87.13,53.09,53.09,0,0,1,10,1.71,44.35,44.35,0,0,1,7.54,2.82,41.27,41.27,0,0,1,7.49,4.65A43.29,43.29,0,0,1,166,49.19a50.83,50.83,0,0,1,4.35,6.07,67.36,67.36,0,0,1,6.78,15.41,93.18,93.18,0,0,1,2.69,11.47,121.68,121.68,0,0,1,1.64,18.12c0,1.4,0,2.8,0,4.21,0,1.64,0,3.29-.12,4.93-2.39,41.85-13.26,66.7-13.26,66.7,1.06,1,2.11,2.05,3.19,3.06,4-10,12.09-36.76,13.14-71.13C184.48,105.08,184.45,102.11,184.36,99.15Z"/><path class="cls-4" d="M194.27,143.55A211.7,211.7,0,0,0,198,108.93c.06-3.28,0-6.57-.08-9.85s-.33-6.57-.68-9.85a104.79,104.79,0,0,0-3.93-19.37,76.57,76.57,0,0,0-8.06-18A57.16,57.16,0,0,0,172.11,37a52.33,52.33,0,0,0-17.62-9,62.87,62.87,0,0,0-17-2.51c-1.9,0-3.8,0-5.68.18a51.49,51.49,0,0,0-21.7,6.84,54,54,0,0,0-4.77,3.09A61.81,61.81,0,0,0,93.12,47.44,80.09,80.09,0,0,0,81.47,67.38a101.4,101.4,0,0,0-3.77,11,114.5,114.5,0,0,0-4.09,32.42l.17-.08a111.53,111.53,0,0,1,5.45-35.51c.25-.77.52-1.53.79-2.28a87.51,87.51,0,0,1,8.89-18.05A72.53,72.53,0,0,1,98.51,43c1.14-1.13,2.32-2.22,3.54-3.25A55.93,55.93,0,0,1,113.66,32a47.83,47.83,0,0,1,17.88-4.86,65.06,65.06,0,0,1,7.52,0,60.21,60.21,0,0,1,11.05,1.6,52.58,52.58,0,0,1,8.36,2.79,48.66,48.66,0,0,1,8.43,4.66,50.15,50.15,0,0,1,7.72,6.59A54.54,54.54,0,0,1,179.84,49a71.49,71.49,0,0,1,8.61,16.23,91.56,91.56,0,0,1,3.71,12.32,115.19,115.19,0,0,1,2.66,19.72c.08,1.53.12,3.06.15,4.6,0,1.8,0,3.6,0,5.41,0,3.34-.19,6.69-.42,10a202.22,202.22,0,0,1-2.76,22.19c-1.05,5.83-2.35,11.63-3.87,17.35-1.73,6.47-4.13,13.57-6.1,19.05-1.61,4.48-2.45,6.77-3.63,9.49l2.15,1.85.88.76c2-4.75,3.29-8.52,4-10.87,1.61-5,4.75-14.75,6.56-22.27C192.73,151.14,193.55,147.35,194.27,143.55Z"/><path class="cls-4" d="M211.54,99c-.16-3.61-.4-7.22-.84-10.82A106.68,106.68,0,0,0,206,67a82.36,82.36,0,0,0-9.42-19.41,65,65,0,0,0-14.87-15.94,60.55,60.55,0,0,0-19.42-9.75,70.21,70.21,0,0,0-19.52-2.8q-3.27,0-6.53.29a60.55,60.55,0,0,0-24.89,8.17,64.14,64.14,0,0,0-5.45,3.6,69.16,69.16,0,0,0-14,13.8A85.22,85.22,0,0,0,80,66a104.19,104.19,0,0,0-3.83,11.51,122.68,122.68,0,0,0-4,34l.17-.08a119.05,119.05,0,0,1,5.86-38.78c.28-.83.58-1.65.88-2.47a90.83,90.83,0,0,1,9.87-19.52A77.7,77.7,0,0,1,99.61,38c1.26-1.2,2.57-2.36,3.92-3.46a63.1,63.1,0,0,1,12.76-8.18,56,56,0,0,1,19.43-5.38,67.66,67.66,0,0,1,8.18-.2,68.56,68.56,0,0,1,12,1.49A59.21,59.21,0,0,1,165.13,25a55.89,55.89,0,0,1,9.38,4.69,57.81,57.81,0,0,1,8.78,6.69,61.78,61.78,0,0,1,6.08,6.45,75.56,75.56,0,0,1,10.43,17A91.92,91.92,0,0,1,204.54,73a113.11,113.11,0,0,1,3.68,21.31c.12,1.66.22,3.32.28,5,.08,2,.11,3.92.12,5.88,0,3.64-.08,7.28-.27,10.91-2,39.25-17,70.59-20.43,77.46,1,.81,2.05,1.6,3.08,2.4,3.53-7.27,19.22-39.83,20.66-86.15C211.78,106.23,211.69,102.61,211.54,99Z"/><path class="cls-4" d="M225.12,98.93c-.19-3.92-.47-7.86-1-11.77a108.66,108.66,0,0,0-5.51-23A88.23,88.23,0,0,0,207.85,43.3a73,73,0,0,0-16.59-17,68.93,68.93,0,0,0-21.21-10.45A77.94,77.94,0,0,0,148,12.74a72.72,72.72,0,0,0-7.39.41,69.2,69.2,0,0,0-28.07,9.49,72.42,72.42,0,0,0-6.15,4.12A76.8,76.8,0,0,0,90.71,42.5,91.08,91.08,0,0,0,78.52,64.56a109,109,0,0,0-3.88,12,131,131,0,0,0-4,35.6l.17-.08a126.34,126.34,0,0,1,6.29-42c.3-.9.62-1.79,1-2.67a94,94,0,0,1,10.86-21,81.58,81.58,0,0,1,11.77-13.53c1.38-1.28,2.82-2.5,4.3-3.67a71.38,71.38,0,0,1,13.91-8.65,65.1,65.1,0,0,1,21-5.91,72.2,72.2,0,0,1,8.83-.36,76.14,76.14,0,0,1,13,1.38,68.73,68.73,0,0,1,10,2.73,64.61,64.61,0,0,1,10.33,4.71,66.75,66.75,0,0,1,9.84,6.8,68.05,68.05,0,0,1,6.94,6.64,81.29,81.29,0,0,1,12.27,17.86,93.71,93.71,0,0,1,5.75,14,111.25,111.25,0,0,1,4.69,22.9c.19,1.8.32,3.59.43,5.4q.17,3.17.24,6.35c.08,3.93,0,7.86-.13,11.79C221,156.3,203,192.06,197.24,200.66l.11.08c1,.7,1.91,1.39,2.88,2.07,22-35.3,24.84-79.38,25.07-92.07Q225.41,104.83,225.12,98.93Z"/><path class="cls-4" d="M231,163.78c1.24-4.23,2.33-8.51,3.29-12.81a195.77,195.77,0,0,0,4.68-39.33q.1-6.39-.23-12.78c-.22-4.25-.56-8.5-1.15-12.74a112.14,112.14,0,0,0-6.3-24.8A94.11,94.11,0,0,0,219.14,39a81.05,81.05,0,0,0-18.31-18.1,77.26,77.26,0,0,0-23-11.15,85.61,85.61,0,0,0-24.64-3.38,78.81,78.81,0,0,0-46.33,16A84,84,0,0,0,89.51,40,96.64,96.64,0,0,0,77.05,63.14a116.89,116.89,0,0,0-4,12.59,140.86,140.86,0,0,0-3.91,37.21l.16-.08c-.21-15.34,1.73-30.81,6.72-45.32.33-1,.68-1.91,1-2.86A97.76,97.76,0,0,1,89,42.24a86.49,86.49,0,0,1,12.85-14.37q2.26-2,4.68-3.87a78.64,78.64,0,0,1,15.06-9.13,74.78,74.78,0,0,1,22.54-6.43,77.14,77.14,0,0,1,9.48-.53,84.78,84.78,0,0,1,14.06,1.27,78.47,78.47,0,0,1,10.82,2.69,74.79,74.79,0,0,1,22.17,11.66,75.79,75.79,0,0,1,7.82,6.82A86.35,86.35,0,0,1,222.52,49a96.41,96.41,0,0,1,6.78,14.88A112.88,112.88,0,0,1,235,88.41c.23,1.92.41,3.85.56,5.79.16,2.27.27,4.54.36,6.83q.23,6.33,0,12.67a189.87,189.87,0,0,1-3,28,194,194,0,0,1-5.31,21.8,187.92,187.92,0,0,1-9,23.62,158.24,158.24,0,0,1-11.72,20.15l.84.55c.8.51,1.6,1,2.41,1.49a149.47,149.47,0,0,0,11.71-20.75A197.56,197.56,0,0,0,231,163.78Z"/><path class="cls-4" d="M252.3,98.79c-.26-4.57-.64-9.15-1.31-13.71a115.72,115.72,0,0,0-7.1-26.61C237.09,41.4,225.6,26,210.4,15.52A85.82,85.82,0,0,0,185.6,3.68,92.41,92.41,0,0,0,158.4,0a86.84,86.84,0,0,0-51.06,17.91,91.54,91.54,0,0,0-19,19.63A102.39,102.39,0,0,0,75.58,61.73c-6.15,16.6-8.29,34.41-7.86,52a.8.8,0,0,1,.16-.08c-.28-17.55,2-35.28,8.25-51.71A102.05,102.05,0,0,1,89,38a90.69,90.69,0,0,1,19-19.28A85.55,85.55,0,0,1,158.41,1.5a91,91,0,0,1,26.7,3.82,84,84,0,0,1,24.18,11.79c14.77,10.37,25.86,25.49,32.38,42.24a113.76,113.76,0,0,1,6.74,26.1c.62,4.46,1,9,1.17,13.48s.27,9,.16,13.55a197.9,197.9,0,0,1-8.86,53.28c-6.38,20.84-18.16,40.75-23.24,47.88,1.11.6,2.22,1.18,3.35,1.74,5-7.18,15-23.07,23-48.64,4.1-13,6.29-28,7.42-38.95a1.23,1.23,0,0,0,0-.19,1.49,1.49,0,0,0,0-.21s0,0,0-.06c.12-1.18.23-2.31.32-3.38,0-.36.07-.71.1-1.06.12-1.43.22-2.75.31-3.93,0-.1,0-.2,0-.3s0-.41,0-.61a1.09,1.09,0,0,0,0-.18c.21-3,.28-5,.29-5.33Q252.69,105.66,252.3,98.79Z"/></g></g></svg>