<svg xmlns="http://www.w3.org/2000/svg" viewBox="0 0 380 299">
  <defs>
    <style>.cls-1{fill:#576fa9;}.cls-2{fill:#6d6e6f;}</style>
  </defs>
  <title>Fichier 1</title>
  <g id="Calque_2" data-name="Calque 2">
    <g id="Calque_1-2" data-name="Calque 1">
      <path class="cls-1"
            d="M380,0V71.83c-4.83-.48-119.38-26.28-125.16-27.72-3.49-.87-6.92-.34-10.31.12C228.27,46.44,155.75,56.79,135.79,60c-7.57,1.2-14.83-.33-22.16-1.28C103,57.28,6.8,43.54,0,41.79V0Z"/>
      <path class="cls-1" d="M379.87,162.57H238c4.3-35.56,8.57-70.85,12.9-106.69l129,42.2Z"/>
      <path class="cls-1"
            d="M174.73,162.54H.27V125.37l19.29-2.29c10.86-1.28,21.71-2.58,32.58-3.8,7.24-.82,14.51-1.47,21.76-2.28,10.21-1.14,20.41-2.38,30.62-3.55,7.25-.83,14.5-1.57,21.75-2.4,4.37-.51,8.59.68,12.87,1.15,7.72.84,15.4,2.12,23.59,3.29C166.64,130.81,170.59,146.29,174.73,162.54Z"/>
      <path class="cls-1" d="M54,62.35c1.81,4.46,11,38.32,11.72,43.29L.3,113V54.79C18.28,56.89,36,59.92,54,62.35Z"/>
      <path class="cls-1"
            d="M128.08,98.39V73.24L198,63.45c0,7.49-5.12,34.28-6.21,40.92C187.57,105.33,152.94,102.08,128.08,98.39Z"/>
      <rect class="cls-1" y="285" width="380" height="14"/>
      <path class="cls-2" d="M6.33,180.06v11.83h9.26v5.85H6.33v12.43H17.8V216H0V174.2H17.8v5.86Z"/>
      <path class="cls-2"
            d="M45.65,183.64v3.77l-6.1.29v-3.4c0-3.35-1.25-4.84-3.58-4.84s-3.59,1.49-3.59,4.24v22.82c0,2.75,1.26,4.25,3.59,4.25s3.58-1.5,3.58-4.84v-4.66l6.1.29v5c0,6.34-3.65,10-9.86,10s-9.74-3.7-9.74-10V183.64c0-6.33,3.58-10,9.74-10S45.65,177.31,45.65,183.64Z"/>
      <path class="cls-2"
            d="M74.32,184.18v21.87c0,6.57-3.88,10.57-10.21,10.57s-10.22-4-10.22-10.57V184.18c0-6.57,3.88-10.58,10.22-10.58S74.32,177.61,74.32,184.18Zm-14.1.06V206c0,3.1,1.38,4.78,3.89,4.78S68,209.09,68,206V184.24c0-3.11-1.37-4.78-3.88-4.78S60.22,181.13,60.22,184.24Z"/>
      <path class="cls-2" d="M100.91,210.05v6H84V174.2h6.34v35.85Z"/>
      <path class="cls-2" d="M114.83,180.06v11.83h9.26v5.85h-9.26v12.43H126.3V216H108.5V174.2h17.8v5.86Z"/>
      <path class="cls-2" d="M155.81,180.06v11.83h9v5.85h-9V216h-6.34V174.2H167v5.86Z"/>
      <path class="cls-2"
            d="M183.35,198.34h-2.93V216h-6.33V174.2h9.14c6.81,0,10.51,3.71,10.51,10.58v3c0,4.43-1.55,7.53-4.48,9.2l5.8,19.06h-6.69Zm-2.93-5.86H183c3,0,4.42-1.61,4.42-5.13v-2.16c0-3.52-1.37-5.13-4.42-5.13h-2.57Z"/>
      <path class="cls-2"
            d="M217,216l-1.38-9.5h-7l-1.37,9.5h-6.34l7.23-41.82h8.07L223.44,216Zm-7.53-15.23h5.31l-2.56-17.63H212Z"/>
      <path class="cls-2" d="M245.9,216l-8.3-27.72h-.12V216h-6V174.2h7.05L246,199.12h.12V174.2h6V216Z"/>
      <path class="cls-2"
            d="M281.39,183.64v3.77l-6.09.29v-3.4c0-3.35-1.26-4.84-3.59-4.84s-3.58,1.49-3.58,4.24v22.82c0,2.75,1.25,4.25,3.58,4.25s3.59-1.5,3.59-4.84v-4.66l6.09.29v5c0,6.34-3.64,10-9.86,10s-9.73-3.7-9.73-10V183.64c0-6.33,3.58-10,9.73-10S281.39,177.31,281.39,183.64Z"/>
      <path class="cls-2"
            d="M304.1,216l-1.38-9.5h-7l-1.37,9.5H288l7.23-41.82h8.07L310.55,216Zm-7.53-15.23h5.32l-2.57-17.63h-.18Z"/>
      <path class="cls-2" d="M318.61,216V174.2H325V216Z"/>
      <path class="cls-2"
            d="M352.13,183v1.08l-6.09.6V183.1c0-2.39-1.14-3.64-3.23-3.64s-3.23,1.25-3.23,3.64v.54c0,2.45,1.08,4.54,5.32,8.13,5.8,4.9,8,8.36,8,13.38v2.09c0,6-3.53,9.38-9.8,9.38s-9.8-3.4-9.8-9.38v-2.81l6.09-.59v3q0,3.94,3.59,4t3.58-4v-1.37c0-2.63-1.25-4.72-5.49-8.31-5.8-4.9-7.77-8.36-7.77-13.26V183c0-6,3.41-9.38,9.44-9.38S352.13,177,352.13,183Z"/>
      <path class="cls-2" d="M366.53,180.06v11.83h9.26v5.85h-9.26v12.43H378V216H360.2V174.2H378v5.86Z"/>
      <path class="cls-2"
            d="M95.8,227c6.81,0,10.51,3.7,10.51,10.57v20.68c0,6.87-3.7,10.57-10.51,10.57H86.71V227Zm-2.75,36h2.51c3,0,4.42-1.61,4.42-5.13V238c0-3.52-1.38-5.14-4.42-5.14H93.05Z"/>
      <path class="cls-2"
            d="M135.23,259.42c0,6.57-3.77,10-9.86,10s-9.74-3.41-9.74-10V227h6.1v32.26c0,3.05,1.37,4.18,3.58,4.18s3.59-1.13,3.59-4.18V227h6.33Z"/>
      <path class="cls-2"
            d="M168.92,227c6.58,0,10.1,3.7,10.1,10.57v.78c0,4.66-1.37,7.41-4.72,8.54V247c3.95,1.2,5.62,4.3,5.62,9.8v1.44c0,6.87-3.71,10.57-10.52,10.57h-9.32V227Zm-2.5,17.26h2c3,0,4.3-1.55,4.3-5.07v-1.38c0-3.4-1.26-5-4-5h-2.27Zm0,18.7h2.74c3.05,0,4.43-1.61,4.43-5.13v-2.33c0-3.71-1.38-5.38-4.72-5.38h-2.45Z"/>
      <path class="cls-2" d="M194.86,232.83v11.83h9.26v5.86h-9.26v12.42h11.47v5.86H188.52V227h17.81v5.85Z"/>
      <path class="cls-2" d="M225.5,233V268.8h-6.33V233h-6.75v-6h19.84v6Z"/>
      <path class="cls-2"
            d="M259.56,237v21.86c0,6.57-3.88,10.58-10.22,10.58s-10.21-4-10.21-10.58V237c0-6.58,3.88-10.58,10.21-10.58S259.56,230.38,259.56,237Zm-14.1.06v21.74c0,3.11,1.37,4.78,3.88,4.78s3.89-1.67,3.89-4.78V237c0-3.11-1.38-4.78-3.89-4.78S245.46,233.91,245.46,237Z"/>
      <path class="cls-2" d="M283.64,268.8l-8.31-27.72h-.12V268.8h-6V227h7.05l7.47,24.91h.12V227h6V268.8Z"/>
    </g>
  </g>
</svg>
